HIERARCHY
ROOT Hips
{
    OFFSET   0.000000   0.000000   0.000000
    CHANNELS 6 Xposition Yposition Zposition Zrotation Xrotation Yrotation
    JOINT Chest
    {
        OFFSET   0.000000   8.007230   0.000000
        CHANNELS 3 Zrotation Xrotation Yrotation
        JOINT Chest2
        {
            OFFSET   0.000000  22.077100   0.000000
            CHANNELS 3 Zrotation Xrotation Yrotation
            JOINT Neck
            {
                OFFSET   0.000000  23.255100   0.000000
                CHANNELS 3 Zrotation Xrotation Yrotation
                JOINT Head
                {
                    OFFSET   0.000000  14.370100   1.956600
                    CHANNELS 3 Zrotation Xrotation Yrotation
                    End Site
                    {
                        OFFSET   0.000000  19.566000   0.000000
                    }
                }
            }
            JOINT LeftCollar
            {
                OFFSET   3.911900  19.017000  -0.467063
                CHANNELS 3 Zrotation Xrotation Yrotation
                JOINT LeftShoulder
                {
                    OFFSET  10.383700   0.000000   0.000000
                    CHANNELS 3 Zrotation Xrotation Yrotation
                    JOINT LeftElbow
                    {
                        OFFSET  26.662100   0.001193   0.000980
                        CHANNELS 3 Zrotation Xrotation Yrotation
                        JOINT LeftWrist
                        {
                            OFFSET  28.869000  -0.000059  -0.000082
                            CHANNELS 3 Zrotation Xrotation Yrotation
                            JOINT LeftFinger0
                            {
                                OFFSET   2.044650  -2.323450   3.252850
                                CHANNELS 3 Zrotation Xrotation Yrotation
                                JOINT LeftFinger01
                                {
                                    OFFSET   3.088130   0.000000   0.000000
                                    CHANNELS 3 Zrotation Xrotation Yrotation
                                    JOINT LeftFinger02
                                    {
                                        OFFSET   2.639460   0.000000   0.000000
                                        CHANNELS 3 Zrotation Xrotation Yrotation
                                        End Site
                                        {
                                            OFFSET   2.582190   0.000000   0.000000
                                        }
                                    }
                                }
                            }
                            JOINT LeftFinger1
                            {
                                OFFSET   8.364480   0.000000   3.252850
                                CHANNELS 3 Zrotation Xrotation Yrotation
                                JOINT LeftFinger11
                                {
                                    OFFSET   4.646930   0.000000   0.000000
                                    CHANNELS 3 Zrotation Xrotation Yrotation
                                    JOINT LeftFinger12
                                    {
                                        OFFSET   2.323470   0.000000   0.000000
                                        CHANNELS 3 Zrotation Xrotation Yrotation
                                        End Site
                                        {
                                            OFFSET   2.273050   0.000000   0.000000
                                        }
                                    }
                                }
                            }
                            JOINT LeftFinger2
                            {
                                OFFSET   8.364490   0.000016   1.078090
                                CHANNELS 3 Zrotation Xrotation Yrotation
                                JOINT LeftFinger21
                                {
                                    OFFSET   5.111610   0.000000   0.000000
                                    CHANNELS 3 Zrotation Xrotation Yrotation
                                    JOINT LeftFinger22
                                    {
                                        OFFSET   2.788150   0.000016   0.000000
                                        CHANNELS 3 Zrotation Xrotation Yrotation
                                        End Site
                                        {
                                            OFFSET   2.727660   0.000000   0.000000
                                        }
                                    }
                                }
                            }
                            JOINT LeftFinger3
                            {
                                OFFSET   7.899780   0.000015  -1.078090
                                CHANNELS 3 Zrotation Xrotation Yrotation
                                JOINT LeftFinger31
                                {
                                    OFFSET   4.646930   0.000000   0.000000
                                    CHANNELS 3 Zrotation Xrotation Yrotation
                                    JOINT LeftFinger32
                                    {
                                        OFFSET   2.323470   0.000000   0.000000
                                        CHANNELS 3 Zrotation Xrotation Yrotation
                                        End Site
                                        {
                                            OFFSET   2.273050   0.000000   0.000000
                                        }
                                    }
                                }
                            }
                            JOINT LeftFinger4
                            {
                                OFFSET   7.435090   0.000000  -3.252850
                                CHANNELS 3 Zrotation Xrotation Yrotation
                                JOINT LeftFinger41
                                {
                                    OFFSET   3.717550   0.000000   0.000000
                                    CHANNELS 3 Zrotation Xrotation Yrotation
                                    JOINT LeftFinger42
                                    {
                                        OFFSET   1.858770   0.000000   0.000000
                                        CHANNELS 3 Zrotation Xrotation Yrotation
                                        End Site
                                        {
                                            OFFSET   1.818440   0.000000   0.000000
                                        }
                                    }
                                }
                            }
                        }
                    }
                }
            }
            JOINT RightCollar
            {
                OFFSET  -3.911910  19.017000  -0.467062
                CHANNELS 3 Zrotation Xrotation Yrotation
                JOINT RightShoulder
                {
                    OFFSET -10.383700   0.000014   0.000000
                    CHANNELS 3 Zrotation Xrotation Yrotation
                    JOINT RightElbow
                    {
                        OFFSET -26.662100   0.001225   0.001091
                        CHANNELS 3 Zrotation Xrotation Yrotation
                        JOINT RightWrist
                        {
                            OFFSET -28.869000  -0.000020  -0.000085
                            CHANNELS 3 Zrotation Xrotation Yrotation
                            JOINT RightFinger0
                            {
                                OFFSET  -2.044650  -2.323490   3.252850
                                CHANNELS 3 Zrotation Xrotation Yrotation
                                JOINT RightFinger01
                                {
                                    OFFSET  -3.088130   0.000000   0.000000
                                    CHANNELS 3 Zrotation Xrotation Yrotation
                                    JOINT RightFinger02
                                    {
                                        OFFSET  -2.639460   0.000000   0.000000
                                        CHANNELS 3 Zrotation Xrotation Yrotation
                                        End Site
                                        {
                                            OFFSET  -2.582190   0.000000   0.000000
                                        }
                                    }
                                }
                            }
                            JOINT RightFinger1
                            {
                                OFFSET  -8.364480   0.000000   3.252850
                                CHANNELS 3 Zrotation Xrotation Yrotation
                                JOINT RightFinger11
                                {
                                    OFFSET  -4.646930   0.000000   0.000000
                                    CHANNELS 3 Zrotation Xrotation Yrotation
                                    JOINT RightFinger12
                                    {
                                        OFFSET  -2.323470   0.000000   0.000000
                                        CHANNELS 3 Zrotation Xrotation Yrotation
                                        End Site
                                        {
                                            OFFSET  -2.273050   0.000000   0.000000
                                        }
                                    }
                                }
                            }
                            JOINT RightFinger2
                            {
                                OFFSET  -8.364480   0.000000   1.078090
                                CHANNELS 3 Zrotation Xrotation Yrotation
                                JOINT RightFinger21
                                {
                                    OFFSET  -5.111620   0.000000   0.000000
                                    CHANNELS 3 Zrotation Xrotation Yrotation
                                    JOINT RightFinger22
                                    {
                                        OFFSET  -2.788160   0.000000   0.000000
                                        CHANNELS 3 Zrotation Xrotation Yrotation
                                        End Site
                                        {
                                            OFFSET  -2.727660   0.000000   0.000000
                                        }
                                    }
                                }
                            }
                            JOINT RightFinger3
                            {
                                OFFSET  -7.899780   0.000000  -1.078090
                                CHANNELS 3 Zrotation Xrotation Yrotation
                                JOINT RightFinger31
                                {
                                    OFFSET  -4.646930   0.000000   0.000000
                                    CHANNELS 3 Zrotation Xrotation Yrotation
                                    JOINT RightFinger32
                                    {
                                        OFFSET  -2.323470   0.000000   0.000000
                                        CHANNELS 3 Zrotation Xrotation Yrotation
                                        End Site
                                        {
                                            OFFSET  -2.273050   0.000000   0.000000
                                        }
                                    }
                                }
                            }
                            JOINT RightFinger4
                            {
                                OFFSET  -7.435090   0.000000  -3.252850
                                CHANNELS 3 Zrotation Xrotation Yrotation
                                JOINT RightFinger41
                                {
                                    OFFSET  -3.717550   0.000000   0.000000
                                    CHANNELS 3 Zrotation Xrotation Yrotation
                                    JOINT RightFinger42
                                    {
                                        OFFSET  -1.858760   0.000000   0.000000
                                        CHANNELS 3 Zrotation Xrotation Yrotation
                                        End Site
                                        {
                                            OFFSET  -1.818440   0.000000   0.000000
                                        }
                                    }
                                }
                            }
                        }
                    }
                }
            }
        }
    }
    JOINT LeftHip
    {
        OFFSET   9.783030   0.000000   0.000000
        CHANNELS 3 Zrotation Xrotation Yrotation
        JOINT LeftKnee
        {
            OFFSET   0.000063 -41.789100   0.000608
            CHANNELS 3 Zrotation Xrotation Yrotation
            JOINT LeftAnkle
            {
                OFFSET   0.000048 -41.133200  -0.000184
                CHANNELS 3 Zrotation Xrotation Yrotation
                JOINT LeftToe
                {
                    OFFSET   0.000000  -6.358960  14.674500
                    CHANNELS 3 Zrotation Xrotation Yrotation
                    End Site
                    {
                        OFFSET   0.000000   0.000000   3.913200
                    }
                }
            }
        }
    }
    JOINT RightHip
    {
        OFFSET  -9.783030   0.000000   0.000000
        CHANNELS 3 Zrotation Xrotation Yrotation
        JOINT RightKnee
        {
            OFFSET   0.000071 -41.789100   0.001239
            CHANNELS 3 Zrotation Xrotation Yrotation
            JOINT RightAnkle
            {
                OFFSET   0.000037 -41.133200  -0.000166
                CHANNELS 3 Zrotation Xrotation Yrotation
                JOINT RightToe
                {
                    OFFSET   0.000000  -6.358960  14.674500
                    CHANNELS 3 Zrotation Xrotation Yrotation
                    End Site
                    {
                        OFFSET   0.000000   0.000000   3.913200
                    }
                }
            }
        }
    }
}
MOTION
Frames: 5
Frame Time:   0.016667
  0.756150  89.574100  -2.234860  -3.176900 -10.507300  -3.503490   0.514383   6.541790   0.346317   0.998523  13.086400   0.639372   1.500820  -1.264010   0.039903   2.470680  -2.557690   3.262330  -7.570600  -3.413960  -1.497850 -70.478500  22.623000   0.098773  -0.257577  -2.880960 -22.067400  20.096600 -20.656300  12.234200  38.829200  34.906400 -63.358500 -34.412500   0.001754   0.001257 -12.197400   0.002858   0.005145 -32.499600   4.409810  -6.881930 -26.807600  -0.003146   0.012473 -18.765300  -0.002006  -0.000916 -28.549800  -2.278900   4.181250 -37.774400  -0.001231   0.000472 -25.157700  -0.000570  -0.000533 -28.385400  -2.267410   4.187480 -35.805400  -0.003037   0.000327 -23.846400   0.000110  -0.001999 -31.695500  -2.505600   4.049650 -47.676100  -0.002431   0.000556 -31.752300   0.000101  -0.002006  14.437600  -2.031840  10.122700  67.631400  15.010200  -5.261020  -3.841920  -6.095270  16.709700 -15.384000  -8.809340   2.875750 -36.568900  28.842500  59.785100  32.688600   0.006994  -0.004350  11.344300   0.000771   0.001940  33.188800   6.815110  10.282100  27.657600   0.003573  -0.000695  19.360300   0.006292  -0.001661  29.026700   1.580340   2.845550  43.600800   0.008216  -0.001394  29.038100   0.009725  -0.000361  28.719400  -0.062640  -0.113988  39.500500  -0.001065  -0.003440  26.307300   0.001120  -0.001595  38.877900  -0.754463  -0.935757  58.326300  -0.000941  -0.000622  38.845300  -0.000201  -0.000500   1.457150  11.068400   3.833940   1.220070   0.004774   3.349130  -0.082973  -1.689080   2.190080   0.000000   0.000000   0.000000   5.252770   6.912460  -2.503920  -2.899580   7.595920  -6.963130   0.119998  -6.264560  -2.914080   0.000000   0.000000   0.000000
  0.752035  89.574000  -2.224530  -3.180760 -10.519500  -3.520550   0.514573   6.552740   0.346469   0.998806  13.108200   0.639645   1.500920  -1.254890   0.039888   2.470460  -2.539090   3.261650  -7.571120  -3.433540  -1.497880 -70.492000  22.670400   0.111233  -0.252452  -2.934350 -22.041500  20.097600 -20.668300  12.237200  38.821800  34.887700 -63.342400 -34.412000   0.001758   0.001265 -12.198500   0.002852   0.005151 -32.522800   4.420060  -6.889800 -26.827000  -0.003144   0.012474 -18.778900  -0.002006  -0.000919 -28.550000  -2.278170   4.179190 -37.820100  -0.001234   0.000472 -25.188200  -0.000574  -0.000533 -28.389600  -2.266820   4.185340 -35.853400  -0.003038   0.000327 -23.878400   0.000110  -0.001998 -31.721900  -2.505930   4.046330 -47.716200  -0.002435   0.000556 -31.779000   0.000100  -0.002006  14.458500  -2.069840  10.153600  67.646300  15.075600  -5.295720  -3.823850  -6.171840  16.713800 -15.384900  -8.831090   2.845340 -36.419000  28.623600  59.568000  32.801900   0.006984  -0.004399  11.401000   0.000774   0.001934  33.247100   6.734500  10.142100  27.692100   0.003578  -0.000694  19.384500   0.006292  -0.001660  29.042500   1.505290   2.708270  43.618800   0.008213  -0.001401  29.050100   0.009724  -0.000336  28.722900  -0.130598  -0.238076  39.582200  -0.001076  -0.003444  26.361700   0.001106  -0.001595  38.945800  -0.773196  -0.956672  58.428400  -0.000958  -0.000626  38.913300  -0.000211  -0.000501   1.458410  11.084600   3.834670   1.220260   0.019329   3.361360  -0.083307  -1.711820   2.190140  -0.000000   0.000000   0.000000   5.254780   6.928100  -2.507790  -2.899300   7.596400  -6.964590   0.122192  -6.260740  -2.896900   0.000000   0.000000   0.000000
  0.744673  89.573900  -2.207370  -3.187390 -10.543400  -3.548780   0.516226   6.576890   0.347498   1.001990  13.156600   0.641278   1.501070  -1.242370   0.039854   2.470110  -2.513620   3.257160  -7.572100  -3.470860  -1.497970 -70.505600  22.768300   0.123747  -0.251459  -3.034660 -22.016700  20.103200 -20.748500  12.258400  38.776500  34.815000 -63.279000 -34.411500   0.001763   0.001272 -12.205800   0.002845   0.005156 -32.559900   4.430320  -6.897670 -26.858600  -0.003141   0.012476 -18.801000  -0.002006  -0.000924 -28.550100  -2.277430   4.177130 -37.889300  -0.001241   0.000473 -25.234300  -0.000585  -0.000533 -28.396600  -2.266220   4.183210 -35.926000  -0.003041   0.000325 -23.926700   0.000110  -0.001998 -31.763000  -2.508160   4.043020 -47.777600  -0.002446   0.000555 -31.819900   0.000099  -0.002006  14.489000  -2.142820  10.197400  67.675500  15.199200  -5.364310  -3.802600  -6.342260  16.730800 -15.383800  -8.982910   2.684680 -36.186400  28.176700  59.148300  32.915200   0.006963  -0.004449  11.457600   0.000777   0.001928  33.327700   6.625060   9.951760  27.740000   0.003582  -0.000693  19.418000   0.006294  -0.001658  29.060700   1.398950   2.515650  43.636800   0.008206  -0.001419  29.062100   0.009724  -0.000277  28.727200  -0.226361  -0.412910  39.663900  -0.001106  -0.003452  26.416200   0.001072  -0.001594  39.017300  -0.793201  -0.978872  58.536100  -0.001000  -0.000633  38.985000  -0.000237  -0.000502   1.463140  11.123700   3.838770   1.220450   0.033884   3.378080  -0.083635  -1.734550   2.190370  -0.000000   0.000000  -0.000000   5.260030   6.960310  -2.513910  -2.898610   7.596830  -6.969060   0.125816  -6.253760  -2.868050  -0.000000   0.000000   0.000000
  0.737670  89.573700  -2.193640  -3.197110 -10.567000  -3.570000   0.520546   6.605300   0.353829   1.009920  13.213500   0.653276   1.501140  -1.237910   0.039805   2.469860  -2.504720   3.242980  -7.572360  -3.510180  -1.515280 -70.491300  22.886300   0.115924  -0.264149  -3.130250 -22.027000  20.095900 -20.915000  12.314900  38.677200  34.682800 -63.165600 -34.443100   0.001762   0.001272 -12.224700   0.002848   0.005156 -32.580000   4.405260  -6.855340 -26.873000  -0.003144   0.012477 -18.811100  -0.002008  -0.000930 -28.550000  -2.302060   4.222070 -37.928700  -0.001251   0.000474 -25.260600  -0.000602  -0.000535 -28.399000  -2.290820   4.228170 -35.969100  -0.003047   0.000322 -23.955400   0.000110  -0.001998 -31.786500  -2.537410   4.085790 -47.815500  -0.002462   0.000556 -31.845100   0.000099  -0.002006  14.507500  -2.222840  10.218300  67.703100  15.331800  -5.445590  -3.769290  -6.563260  16.903700 -15.273300  -9.536960   2.293590 -36.019800  27.578100  58.640900  32.805700   0.006943  -0.004411  11.402900   0.000776   0.001994  33.360600   6.590960   9.889910  27.759200   0.003581  -0.000690  19.431500   0.006301  -0.001658  29.025100   1.348950   2.431510  43.577700   0.008197  -0.001445  29.022700   0.009728  -0.000191  28.727900  -0.269634  -0.491798  39.641200  -0.001154  -0.003462  26.401100   0.001020  -0.001594  39.021300  -0.794546  -0.980220  58.542200  -0.001069  -0.000636  38.989000  -0.000277  -0.000502   1.471650  11.180600   3.850300   1.217330   0.001408   3.382650  -0.082596  -1.731360   2.192620  -0.000000   0.000000   0.000000   5.267850   6.996410  -2.517070  -2.897790   7.595250  -6.976140   0.128455  -6.246610  -2.846710  -0.000000   0.000000  -0.000000
  0.730166  89.573600  -2.180310  -3.212890 -10.601400  -3.592900   0.526009   6.647400   0.364878   1.019460  13.297900   0.674702   1.501170  -1.236840   0.039757   2.469480  -2.502710   3.226680  -7.563800  -3.555850  -1.544150 -70.458100  23.027000   0.085360  -0.292044  -3.255790 -22.087200  20.087700 -21.196400  12.444100  38.528500  34.473200 -62.984400 -34.494200   0.001760   0.001272 -12.247100   0.002851   0.005155 -32.625500   4.357510  -6.768210 -26.904900  -0.003148   0.012479 -18.833500  -0.002010  -0.000937 -28.549400  -2.346850   4.303890 -37.962000  -0.001264   0.000475 -25.282700  -0.000623  -0.000537 -28.398200  -2.335480   4.310060 -36.001800  -0.003054   0.000317 -23.977200   0.000110  -0.001997 -31.803500  -2.587610   4.163840 -47.847000  -0.002483   0.000558 -31.866100   0.000099  -0.002005  14.524400  -2.311860  10.226500  67.726100  15.476300  -5.532230  -3.758500  -6.828330  17.295200 -15.111500 -10.591000   1.836010 -35.947400  26.967300  58.248100  32.483100   0.006914  -0.004322  11.241500   0.000773   0.002106  33.371000   6.585590   9.878480  27.765000   0.003581  -0.000689  19.435500   0.006315  -0.001659  28.965600   1.330220   2.402720  43.483400   0.008188  -0.001479  28.959900   0.009736  -0.000092  28.728200  -0.285099  -0.519942  39.618500  -0.001215  -0.003475  26.385900   0.000956  -0.001594  39.022100  -0.794899  -0.980584  58.543500  -0.001145  -0.000640  38.989900  -0.000322  -0.000502   1.484030  11.251400   3.864850   1.211700  -0.040498   3.385040  -0.081495  -1.728160   2.196920   0.000000   0.000000   0.000000   5.278670   7.044910  -2.521900  -2.896580   7.592730  -6.987160   0.131338  -6.239220  -2.820760  -0.000000   0.000000   0.000000
